<?xml version="1.0" standalone="no"?>
<!DOCTYPE svg PUBLIC "-//W3C//DTD SVG 20010904//EN"
 "http://www.w3.org/TR/2001/REC-SVG-20010904/DTD/svg10.dtd">
<svg version="1.0" xmlns="http://www.w3.org/2000/svg"
 width="890.000000pt" height="1280.000000pt" viewBox="0 0 890.000000 1280.000000"
 preserveAspectRatio="xMidYMid meet">
<metadata>
Created by potrace 1.15, written by Peter Selinger 2001-2017
</metadata>
<g transform="translate(0.000000,1280.000000) scale(0.100000,-0.100000)"
fill="#000000" stroke="none">
<path d="M5020 12789 c-97 -11 -354 -54 -499 -84 l-115 -23 -41 20 -42 20
-134 -36 c-225 -61 -477 -175 -548 -248 -113 -116 -88 -430 45 -564 20 -20 52
-43 71 -51 46 -19 137 -18 193 2 174 62 564 308 598 377 6 14 15 59 18 100 l7
75 196 36 c348 66 568 93 659 82 78 -10 181 -83 342 -244 318 -319 603 -743
914 -1361 163 -323 264 -548 412 -919 l73 -183 -10 -73 c-10 -72 -9 -73 35
-192 134 -361 179 -833 110 -1173 -37 -180 -120 -378 -218 -514 -202 -282
-558 -492 -964 -568 -156 -29 -449 -31 -627 -4 -559 85 -1179 372 -1766 818
-64 48 -136 108 -160 134 -24 25 -67 58 -95 72 -55 28 -113 95 -365 412 -694
874 -1107 1582 -1183 2029 -9 52 -16 114 -16 137 0 247 244 529 574 664 54 22
102 40 106 40 5 0 23 -19 39 -42 17 -24 47 -54 66 -67 31 -21 43 -23 103 -18
93 8 275 51 414 98 128 43 262 101 272 117 28 46 25 245 -6 372 -15 64 -53
134 -96 182 -36 41 -139 98 -176 98 -77 0 -508 -190 -648 -286 -41 -29 -68
-77 -68 -122 0 -28 -7 -34 -116 -91 -326 -172 -539 -372 -669 -628 -64 -127
-79 -194 -72 -323 31 -625 728 -1816 1816 -3105 163 -193 466 -536 613 -694
60 -64 108 -120 108 -126 0 -5 -10 -33 -22 -62 l-21 -52 79 -88 c468 -522
1107 -1019 1594 -1238 438 -198 806 -250 1203 -172 11 2 28 -29 381 -693 671
-1261 798 -1525 867 -1797 58 -228 63 -278 64 -563 0 -287 -6 -340 -65 -570
-64 -252 -212 -580 -317 -705 -165 -196 -425 -336 -755 -406 -126 -27 -425
-33 -548 -11 -365 66 -606 214 -1240 763 -392 339 -595 493 -855 648 -233 139
-386 208 -606 275 -192 58 -279 70 -499 70 -164 0 -212 -4 -300 -22 -217 -47
-351 -96 -688 -256 -368 -173 -479 -209 -652 -209 -116 -1 -221 23 -313 70
-149 75 -336 236 -449 388 -315 421 -482 1069 -398 1545 42 238 161 693 288
1102 l49 156 -30 30 c-22 22 -28 36 -24 54 6 23 9 23 129 23 268 1 510 95 699
273 243 228 362 539 329 862 -26 249 -124 456 -299 630 -179 178 -379 273
-635 300 -161 18 -333 -7 -488 -70 -164 -67 -332 -196 -440 -340 -199 -262
-259 -637 -153 -950 82 -242 260 -455 480 -576 38 -21 64 -39 59 -40 -5 -1
-43 -5 -85 -9 l-76 -6 -81 -262 c-174 -560 -272 -967 -303 -1252 -15 -139 -6
-360 22 -543 126 -833 558 -1516 1144 -1807 224 -111 412 -149 632 -127 238
24 359 61 813 247 506 207 587 230 815 230 159 -1 251 -17 409 -72 308 -107
576 -290 1156 -788 534 -460 738 -609 995 -730 376 -178 814 -229 1250 -145
412 80 760 260 1015 527 113 117 177 211 269 393 378 744 429 1413 167 2177
-125 363 -282 686 -844 1738 l-379 710 94 99 c293 308 470 760 528 1346 29
290 16 798 -30 1145 -28 218 -70 442 -86 461 -5 6 -27 14 -48 18 l-39 6 -28
92 c-15 51 -61 189 -101 307 -40 118 -73 218 -73 223 0 4 7 8 15 8 8 0 15 1
15 3 0 1 -51 144 -114 317 -100 274 -118 317 -142 332 -23 14 -48 64 -134 265
-288 673 -595 1221 -945 1688 -157 209 -278 348 -509 583 -176 178 -209 207
-271 237 -89 44 -161 61 -305 75 -131 11 -212 11 -320 -1z m2550 -4190 c0 -9
-11 -24 -24 -32 l-24 -16 -6 102 c-4 56 -9 118 -11 137 -3 19 11 -12 30 -70
19 -58 35 -112 35 -121z m-32 -451 c39 -292 46 -399 46 -703 1 -328 -9 -446
-54 -665 -66 -322 -174 -545 -347 -717 -132 -132 -264 -199 -442 -224 -374
-53 -906 191 -1506 690 -183 152 -464 417 -587 554 l-70 77 88 -41 c297 -137
583 -227 894 -281 119 -20 473 -17 595 6 599 110 1077 529 1271 1114 32 98 74
277 74 320 0 17 4 32 8 32 5 0 18 -73 30 -162z m-3031 -970 c-46 -13 -62 -6
-110 47 l-48 54 90 -47 c75 -39 86 -48 68 -54z m-3627 -1963 c0 -19 -11 -19
-36 0 -18 14 -18 14 9 15 17 0 27 -5 27 -15z"/>
</g>
</svg>
